<?xml version="1.0" encoding="utf-8"?>
<!-- Generator: Adobe Illustrator 16.0.0, SVG Export Plug-In . SVG Version: 6.00 Build 0)  -->
<!DOCTYPE svg PUBLIC "-//W3C//DTD SVG 1.1//EN" "http://www.w3.org/Graphics/SVG/1.1/DTD/svg11.dtd">
<svg version="1.1" id="BACKGROUND" xmlns="http://www.w3.org/2000/svg" xmlns:xlink="http://www.w3.org/1999/xlink" x="0px" y="0px"
	 width="750px" height="500px" viewBox="0 0 750 500" enable-background="new 0 0 750 500" xml:space="preserve">
<g>
	<rect fill="#140635" width="750" height="500"/>
	<g>
		<defs>
			<rect id="SVGID_1_" width="750" height="500"/>
		</defs>
		<clipPath id="SVGID_2_">
			<use xlink:href="#SVGID_1_"  overflow="visible"/>
		</clipPath>
		<g clip-path="url(#SVGID_2_)">
			<linearGradient id="SVGID_3_" gradientUnits="userSpaceOnUse" x1="342.3174" y1="258.4063" x2="379.4112" y2="345.4961">
				<stop  offset="0" style="stop-color:#270C66"/>
				<stop  offset="1" style="stop-color:#140635"/>
			</linearGradient>
			<path fill="url(#SVGID_3_)" d="M-22.685,444.038c89.086,15.903,136.076-18.957,151.305-36.096
				c15.229-17.138,66.131-96.334,137.218-104.972c61.115-7.426,104.608,8.969,180.521-15.532s71.479-91.582,138-141.39
				c66.521-49.808,173.479-32.134,173.479-32.134L546.233,363.531L108.851,502.575c0,0-129.97,28.571-129.448,23.751
				C-20.075,521.506-22.685,444.038-22.685,444.038z"/>
			<linearGradient id="SVGID_4_" gradientUnits="userSpaceOnUse" x1="28.4365" y1="479.4268" x2="40.9582" y2="504.9919">
				<stop  offset="0" style="stop-color:#270C66"/>
				<stop  offset="1" style="stop-color:#140635"/>
			</linearGradient>
			<path fill="url(#SVGID_4_)" d="M-28.945,471.782c52.957,41.78,103.565-20.087,118.435-9.391
				c14.87,10.695-35.217,66.521-35.217,66.521s-41.218,21.913-54.261,7.826c-13.044-14.087-33.392-34.695-33.913-42.521
				S-28.945,471.782-28.945,471.782z"/>
			<linearGradient id="SVGID_5_" gradientUnits="userSpaceOnUse" x1="620.6738" y1="205.98" x2="629.3299" y2="226.303">
				<stop  offset="0" style="stop-color:#270C66"/>
				<stop  offset="1" style="stop-color:#140635"/>
			</linearGradient>
			<path fill="url(#SVGID_5_)" d="M711.664,202.826c-77.87-24.261-136.565,9.783-153,74.348
				C568.055,273.652,711.664,202.826,711.664,202.826z"/>
			<linearGradient id="SVGID_6_" gradientUnits="userSpaceOnUse" x1="288.3389" y1="327.0117" x2="296.9948" y2="347.3343">
				<stop  offset="0" style="stop-color:#270C66"/>
				<stop  offset="1" style="stop-color:#140635"/>
			</linearGradient>
			<path fill="url(#SVGID_6_)" d="M379.329,323.857c-77.87-24.261-136.565,9.782-153,74.348
				C235.72,394.684,379.329,323.857,379.329,323.857z"/>
			<linearGradient id="SVGID_7_" gradientUnits="userSpaceOnUse" x1="289.3379" y1="421.9121" x2="715.4686" y2="311.5644">
				<stop  offset="0" style="stop-color:#FC7A4B"/>
				<stop  offset="0.4899" style="stop-color:#CF0054"/>
				<stop  offset="1" style="stop-color:#790054"/>
			</linearGradient>
			<path fill="url(#SVGID_7_)" d="M754.693,94.83v415.08H6.573c75.01-17.351,78.92-77.74,124.41-108.65
				c40.79-27.72,93.76-2.25,157.149-47.1h0.011c7.319-5.17,14.779-11.29,22.37-18.53c93.84-89.47,213.289-40.13,278.84-77.01
				c8.71-4.9,16.689-11.37,24.16-18.9c0.199-0.21,0.399-0.41,0.59-0.61C662.523,189.74,689.633,95.76,754.693,94.83z"/>
			<linearGradient id="SVGID_8_" gradientUnits="userSpaceOnUse" x1="97.9072" y1="561.9736" x2="716.559" y2="202.7563">
				<stop  offset="0" style="stop-color:#FC7A4B"/>
				<stop  offset="0.4899" style="stop-color:#CF0054"/>
				<stop  offset="1" style="stop-color:#790054"/>
			</linearGradient>
			<path fill="url(#SVGID_8_)" d="M754.693,94.83v222.41c-40.58,35.29-101.641,63.59-172.16,64.02
				c-106.5,0.65-225.93,56.79-242.49,128.65H6.573c75.01-17.351,78.92-77.74,124.41-108.65c40.79-27.72,93.76-2.25,157.149-47.1
				h0.011c7.319-5.17,14.779-11.29,22.37-18.53c93.84-89.47,213.289-40.13,278.84-77.01c8.71-4.9,16.689-11.37,24.16-18.9
				c0.199-0.21,0.399-0.41,0.59-0.61C662.523,189.74,689.633,95.76,754.693,94.83z"/>
			<linearGradient id="SVGID_9_" gradientUnits="userSpaceOnUse" x1="141.1836" y1="472.9023" x2="624.0532" y2="214.6417">
				<stop  offset="0" style="stop-color:#FC7A4B"/>
				<stop  offset="0.4899" style="stop-color:#CF0054"/>
				<stop  offset="1" style="stop-color:#790054"/>
			</linearGradient>
			<path fill="url(#SVGID_9_)" d="M613.514,239.72c-68.5,71.65-153.67,166.91-274.37,187.709
				c-75.601,13.03-115.07,53.75-134.061,82.48H6.573c75.01-17.351,78.92-77.74,124.41-108.65c40.79-27.72,93.76-2.25,157.149-47.1
				h0.011c7.319-5.17,14.779-11.29,22.37-18.53c50-47.67,107.27-55.93,159.779-58.83c0.01,0,0.021,0,0.03-0.01
				c20.851-1.14,40.95-1.45,59.54-3.03c22.46-1.92,42.74-5.71,59.49-15.14C598.063,253.72,606.043,247.25,613.514,239.72z"/>
			<linearGradient id="SVGID_10_" gradientUnits="userSpaceOnUse" x1="35.4775" y1="509.8418" x2="307.8254" y2="361.1463">
				<stop  offset="0" style="stop-color:#FC7A4B"/>
				<stop  offset="0.4899" style="stop-color:#CF0054"/>
				<stop  offset="1" style="stop-color:#790054"/>
			</linearGradient>
			<path fill="url(#SVGID_10_)" d="M288.133,354.16c-42.609,35.52-64,125.3-153.96,155.75H6.573
				c75.01-17.351,78.92-77.74,124.41-108.65c20.75-14.1,44.66-14.439,71.479-17.279c14.311-1.5,29.44-3.721,45.37-9.12
				c0.05-0.021,0.09-0.03,0.141-0.051C260.854,370.44,274.243,363.99,288.133,354.16z"/>
			<linearGradient id="SVGID_11_" gradientUnits="userSpaceOnUse" x1="21.4033" y1="444.0381" x2="247.833" y2="444.0381">
				<stop  offset="0" style="stop-color:#FFFFC2"/>
				<stop  offset="1" style="stop-color:#142C6F"/>
			</linearGradient>
			<path fill="url(#SVGID_11_)" d="M247.833,374.86c-67.16,23.83-50.3,105.359-159.52,135.05c-3.15,0.859-6.41,1.67-9.78,2.439
				c-16.43,1.95-57.13,0-57.13,0c3.78-0.58,7.46-1.399,11.03-2.439c60.67-17.62,93.609-98.16,170.029-125.93
				C216.773,382.48,231.903,380.26,247.833,374.86z"/>
			<linearGradient id="SVGID_12_" gradientUnits="userSpaceOnUse" x1="142.7031" y1="398.2051" x2="529.8633" y2="398.2051">
				<stop  offset="0" style="stop-color:#FFFFC2"/>
				<stop  offset="1" style="stop-color:#142C6F"/>
			</linearGradient>
			<path fill="url(#SVGID_12_)" d="M529.863,273.76c-98.34,10.971-82.54,84.57-180.03,118.46c-84,29.2-139.78,86.641-157.64,117.69
				c-2.891,5.01-4.79,9.33-5.66,12.74l-43.83-2.61c4.98-1.59,11.01-5.13,17.87-10.13c44.84-32.7,115.177-129.577,173.612-171.692
				c43.435-31.305,80.748-52.138,136.107-61.418c0.01,0,0.021,0,0.03-0.01C491.174,275.65,511.273,275.34,529.863,273.76z"/>
			<linearGradient id="SVGID_13_" gradientUnits="userSpaceOnUse" x1="293.9883" y1="532.8438" x2="842.2042" y2="67.9755">
				<stop  offset="0" style="stop-color:#FFFFC2"/>
				<stop  offset="1" style="stop-color:#142C6F"/>
			</linearGradient>
			<path fill="url(#SVGID_13_)" d="M249.533,522.65c0.782-37.957,49.614-67.303,74.657-74.085
				c25.044-6.783,45.474-15.913,80.169-29.479s215.739-93.652,256.435-181.826s17.39-59.718,59.042-131.859
				c2.658-1.585,49.479-40.836,49.479-40.836v86.608c-53.739,8.254-46.435,96.522-130.435,161.608
				c-56.648,43.895-173.217,78.131-235.565,112.044c-62.348,33.913-116.348,54.261-104.348,92.608L249.533,522.65z"/>
			<linearGradient id="SVGID_14_" gradientUnits="userSpaceOnUse" x1="389.7402" y1="552.6299" x2="853.0443" y2="305.3254">
				<stop  offset="0" style="stop-color:#FFFFC2"/>
				<stop  offset="1" style="stop-color:#142C6F"/>
			</linearGradient>
			<path fill="url(#SVGID_14_)" d="M402.533,522.65c21.131-167.216,313.043-52.955,363.652-165.39
				C750,552.261,503.489,417.261,402.533,522.65z"/>
			<g>
				<defs>
					<path id="SVGID_15_" d="M754.693,94.83v415.08H6.573c75.01-17.351,78.92-77.74,124.41-108.65
						c40.79-27.72,93.76-2.25,157.149-47.1h0.011c7.319-5.17,14.779-11.29,22.37-18.53c93.84-89.47,213.289-40.13,278.84-77.01
						c8.71-4.9,16.689-11.37,24.16-18.9c0.199-0.21,0.399-0.41,0.59-0.61C662.523,189.74,689.633,95.76,754.693,94.83z"/>
				</defs>
				<clipPath id="SVGID_16_">
					<use xlink:href="#SVGID_15_"  overflow="visible"/>
				</clipPath>
				<g clip-path="url(#SVGID_16_)">
					<g opacity="0.3">
						<path fill="#FFFFFF" d="M358.491,517.493c-0.728-12.376,6.904-27.839,21.49-43.539
							c36.139-38.898,113.909-78.761,206.189-80.128c75.178-1.114,150.163-31.418,182.349-73.692l1.592,1.211
							c-16.728,21.971-43.939,40.711-78.694,54.196c-32.358,12.555-69.726,19.759-105.217,20.285
							c-91.689,1.358-168.904,40.902-204.753,79.489c-14.211,15.297-21.655,30.234-20.96,42.061L358.491,517.493z"/>
					</g>
					<g opacity="0.3">
						<path fill="#FFFFFF" d="M311.807,522.812c-6.727-41.321,63.121-84.243,122.901-112.974
							c14.266-6.855,37.898-15.888,65.262-26.346c56.325-21.527,126.424-48.318,154.976-71.614
							c20.444-16.683,41.082-48.526,59.291-76.622c19.854-30.633,37.001-57.089,49.454-57.3l0.033,2
							c-11.388,0.193-29.079,27.489-47.809,56.388c-18.289,28.218-39.019,60.203-59.706,77.083
							c-28.801,23.5-99.065,50.355-155.524,71.934c-27.322,10.442-50.919,19.46-65.109,26.28
							c-59.166,28.435-128.323,70.748-121.794,110.849L311.807,522.812z"/>
					</g>
					<g opacity="0.3">
						<path fill="#FFFFFF" d="M231.709,522.711c-1.548-25.707,15.603-48.737,50.975-68.452
							c36.485-20.335,79.739-29.718,92.127-32.109c23.956-4.626,83.937-28.116,142.904-71.459
							c49.063-36.063,111.371-96.459,129.581-179.383l1.953,0.429c-18.343,83.532-81.01,144.298-130.35,180.565
							c-59.231,43.537-119.583,67.152-143.71,71.811c-54.123,10.449-144.828,42.949-141.484,98.478L231.709,522.711z"/>
					</g>
					<g opacity="0.3">
						<path fill="#FFFFFF" d="M173.267,530.413l-1.855-0.748c14.785-36.71,40.597-69.691,72.678-92.867
							c21.166-15.29,45.214-26.652,68.47-37.64c23.708-11.202,48.223-22.785,69.588-38.506
							c13.646-10.04,26.191-21.911,38.324-33.391c6.555-6.202,13.334-12.616,20.22-18.68c15.46-13.614,39.301-32.468,67.732-38.988
							l0.447,1.949c-27.988,6.419-51.562,25.069-66.857,38.54c-6.859,6.04-13.625,12.441-20.168,18.632
							c-12.177,11.521-24.768,23.435-38.513,33.549c-21.521,15.835-46.125,27.46-69.919,38.702
							c-23.174,10.949-47.137,22.271-68.152,37.453C213.48,461.377,187.912,494.048,173.267,530.413z"/>
					</g>
					<g opacity="0.3">
						<path fill="#FFFFFF" d="M55.266,523.74c-2.01,0-4.046-0.03-6.109-0.09l0.059-2c91.002,2.686,128.927-54.911,159.398-101.168
							c17.555-26.648,32.716-49.663,54.309-56.608l0.613,1.904c-20.924,6.729-35.905,29.472-53.252,55.805
							C180.228,467.208,142.986,523.74,55.266,523.74z"/>
					</g>
				</g>
			</g>
			<g>
				<path opacity="0.1" fill="#FFFFFF" d="M323.489,500c12.689-69.692,100.852-123.219,233.165-148.762
					s36.835-221.978,119.792-260.325c23.85-11.025,45.565-12.218,64.402-8.32c55.087,11.398,88.955,66.99,75.746,121.671
					c-13.403,55.485-63.607,129.693-226.235,169.954C308.896,443.896,468.272,514.907,542.62,509.91L323.489,500z"/>
				<path opacity="0.1" fill="#FFFFFF" d="M209.489,519.521c20.04-77.875,207.185-121.828,275.624-158.608
					s53.805-96.852-29.362-72.521c-83.168,24.33-213.913,227.478-321.913,234.261c-108,6.782,116.348-61.044,146.608-140.348
					c30.261-79.305-84.261-66.213-118.435,20.633c-34.174,86.845-32.87,96.758-68.87,114.497s10.696-20.087-14.087-44.608
					c-24.782-24.521-121.826-8.715-83.217,50.295C34.446,582.131,209.489,519.521,209.489,519.521z"/>
			</g>
		</g>
	</g>
</g>
</svg>
